<svg width="391" height="245" viewBox="0 0 391 245" fill="none" xmlns="http://www.w3.org/2000/svg">
<path d="M314 244.5C309.805 243.651 312.502 228.448 310.5 228.5C320.4 226.841 326.198 224.856 337 219.5C342.935 224.11 354 225.5 349.5 228.5C345 231.5 336 229.5 335.5 231C335 232.5 338 241 334.5 242.5C331 244 329.781 236.865 325 237.5C320.544 238.092 318.406 245.392 314 244.5Z" fill="#FF8D28"/>
<path d="M268.05 244.5C272.244 243.651 269.548 228.448 271.55 228.5C261.649 226.841 255.852 224.856 245.05 219.5C239.114 224.11 228.05 225.5 232.55 228.5C237.05 231.5 246.05 229.5 246.55 231C247.05 232.5 244.05 241 247.55 242.5C251.05 244 252.269 236.865 257.05 237.5C261.506 238.092 263.644 245.392 268.05 244.5Z" fill="#FF8D28"/>
<path d="M389.302 96.4055C395.303 100.942 377.872 141.776 356.8 160.42C359.192 214.915 344.53 228.939 289.295 233C239.934 225.96 223.059 214.33 223.29 160.42C203.951 135.539 184.787 99.9339 193.788 96.4055C202.788 92.877 211.934 102.354 223.29 111.527C196.2 85.4748 228.074 -3.4312 289.295 0.635197C350.516 4.7016 378.662 51.9918 359.3 111.527C370.128 102.224 383.302 91.8689 389.302 96.4055Z" fill="black" stroke="black"/>
<path d="M323 31.5001C307.766 33.4712 300.519 36.754 290.5 47.5001C277.406 35.7624 270.532 32.4183 259 31.5001C236.049 34.8164 227.606 44.4776 221.5 77.5001C222.906 104.422 230.416 112.914 251 121C224.025 195.921 229.942 219.836 290.5 219.5C348.604 217.729 358.788 197.215 331.5 121C351.306 110.04 358.5 100.5 358.5 77.5001C352.731 50.1731 346.129 34.332 323 31.5001Z" fill="white"/>
<path d="M303 89.6921C303 89.6921 289.072 87.0101 279.5 89.6921C280.315 95.6743 283.5 99.1921 292 99.1921C300.5 99.1921 303 89.6921 303 89.6921Z" fill="#FF8D28"/>
<path d="M311.5 83.2524C313.5 62.7524 330 61.7524 330 83.2524" stroke="black" stroke-width="3"/>
<path d="M251.5 83.2524C253.5 62.7524 270 61.7524 270 83.2524" stroke="black" stroke-width="3"/>
<path d="M123 244.5C118.805 243.651 121.502 228.448 119.5 228.5C129.4 226.841 135.198 224.856 146 219.5C151.935 224.11 163 225.5 158.5 228.5C154 231.5 145 229.5 144.5 231C144 232.5 147 241 143.5 242.5C140 244 138.781 236.865 134 237.5C129.544 238.092 127.406 245.392 123 244.5Z" fill="#FF8D28"/>
<path d="M77.0495 244.5C81.2442 243.651 78.5478 228.448 80.5495 228.5C70.6492 226.841 64.8519 224.856 54.0495 219.5C48.1143 224.11 37.0495 225.5 41.5495 228.5C46.0495 231.5 55.0495 229.5 55.5495 231C56.0495 232.5 53.0495 241 56.5495 242.5C60.0495 244 61.2689 236.865 66.0495 237.5C70.5056 238.092 72.6435 245.392 77.0495 244.5Z" fill="#FF8D28"/>
<path d="M198.302 96.4055C204.303 100.942 186.872 141.776 165.8 160.42C168.192 214.915 153.53 228.939 98.2948 233C48.934 225.96 32.0589 214.33 32.2899 160.42C12.9509 135.539 -6.21295 99.9339 2.78771 96.4055C11.7884 92.877 20.9344 102.354 32.2899 111.527C5.20025 85.4748 37.0737 -3.4312 98.2948 0.635197C159.516 4.7016 187.662 51.9918 168.3 111.527C179.128 102.224 192.302 91.8689 198.302 96.4055Z" fill="black" stroke="black"/>
<path d="M132 31.5001C116.766 33.4712 109.519 36.754 99.5 47.5001C86.4063 35.7624 79.532 32.4183 68 31.5001C45.0493 34.8164 36.6064 44.4776 30.5 77.5001C31.9061 104.422 39.4165 112.914 60 121C33.0248 195.921 38.9416 219.836 99.5 219.5C157.604 217.729 167.788 197.215 140.5 121C160.306 110.04 167.5 100.5 167.5 77.5001C161.731 50.1731 155.129 34.332 132 31.5001Z" fill="white"/>
<path d="M112 89.6921C112 89.6921 98.072 87.0101 88.5 89.6921C89.3146 95.6743 92.5 99.1921 101 99.1921C109.5 99.1921 112 89.6921 112 89.6921Z" fill="#FF8D28"/>
<path d="M120.5 83.2524C122.5 62.7524 139 61.7524 139 83.2524" stroke="black" stroke-width="3"/>
<path d="M60.5 83.2524C62.5 62.7524 79 61.7524 79 83.2524" stroke="black" stroke-width="3"/>
</svg>
